<?xml version="1.0" encoding="UTF-8"?><svg id="Claim" xmlns="http://www.w3.org/2000/svg" viewBox="0 0 1920 763"><defs><style>.cls-1{fill:#fff;}</style></defs><path class="cls-1" d="M347.68,228.06c-12.11,1.79-19.29,3.14-27.81,13.01-10.32,11.22-10.77,26.47-11.22,41.27-5.38,128.3-58.32,200.08-192.91,200.08-48.45,0-115.74-11.22-115.74-73.12,0-24.67,15.25-45.76,41.72-45.76,19.29,0,34.09,10.77,34.09,31.4,0,14.36-9.87,25.12-9.87,39.48,0,24.67,28.26,30.51,48,30.51,73.12,0,104.08-72.68,111.71-135.03-21.53,22.88-48,30.51-78.51,30.51-77.61,0-122.02-57.42-122.02-131.89,0-32.75,8.08-64.6,23.78-93.76C85.24,67.46,152.53,36.95,227.45,36.95c24.67,0,45.76,5.38,68.19,15.7,3.59,1.35,8.52,4.04,12.56,4.04,7.63,0,5.38-11.22,14.36-11.22,5.38,0,8.07,3.59,8.07,8.52,0,18.84-10.77,71.78-17.05,90.17-1.79,5.83-4.93,12.56-12.11,12.56-6.28,0-7.63-5.83-8.08-10.77-2.69-24.23-2.24-40.38-15.25-62.36-12.11-20.64-31.4-30.95-55.18-30.95-48,0-78.96,42.17-92.42,83.44-8.97,28.26-12.11,58.32-12.11,87.48,0,42.62,8.52,104.08,63.26,104.08,37.24,0,53.83-26.92,53.83-61.46,0-10.32-1.79-19.29-9.42-26.92-7.63-8.08-16.15-8.97-26.47-11.22-3.59-.9-5.83-2.24-5.83-6.28s3.59-6.28,7.18-6.28h148.49c3.59,0,6.28,2.24,6.28,6.28,0,4.93-4.04,5.83-8.08,6.28Zm173.16,9.87c-23.78,24.67-65.5,33.65-98.7,33.2-.9,7.18-1.79,14.36-1.79,21.53,0,27.37,9.42,49.8,39.93,49.8,26.47,0,41.72-15.7,55.63-35.44,1.79-2.24,3.59-4.04,6.28-4.04,3.59,0,5.83,3.14,5.83,6.28,0,1.79-.45,3.59-1.35,5.38-18.84,32.3-48,48-85.24,48-52.04,0-90.17-23.33-90.17-78.96,0-74.92,58.77-131,133.24-131,27.37,0,54.73,10.77,54.73,42.17,0,16.15-7.18,31.4-18.39,43.07Zm-48-74.02c-28.26,0-43.96,69.98-47.55,91.07,4.93,1.35,9.87,2.24,15.25,2.24,32.75,0,41.27-34.99,44.86-61.46,.45-3.59,.9-7.18,.9-10.77,0-8.97-2.24-21.09-13.46-21.09Zm216.23,12.56l-45.76,.45-21.98,111.26c-1.79,8.08-3.59,16.6-3.59,25.12,0,11.22,4.04,19.74,16.6,19.74,26.02,0,43.07-27.37,48.45-27.37,2.69,0,4.04,2.24,4.04,4.49s-.9,4.04-2.24,5.83c-3.59,5.83-9.42,11.22-14.8,15.7-23.78,19.74-54.73,30.95-86.13,30.95-22.88,0-33.2-14.8-33.2-36.79,0-10.77,2.24-21.53,4.49-32.3,8.52-36.79,17.5-79.85,24.67-117.09h-26.47c-3.14,0-5.83-2.24-5.83-5.38,0-3.59,1.79-5.38,4.93-6.28,15.7-4.93,29.61-10.77,43.52-19.74,16.6-11.66,30.95-25.12,44.86-40.38,2.69-3.14,6.28-6.28,10.77-6.28,4.93,0,6.73,3.14,6.73,7.63,0,1.79-.45,3.59-.45,5.38-3.59,15.7-7.63,31.4-10.77,47.55h48.9c3.14,0,5.38,1.79,5.38,4.93,0,6.28-5.83,12.56-12.11,12.56Zm769.82,135.03c-4.93,0-17.05,16.6-31.85,16.6-8.97,0-13.01-6.28-13.01-14.8,0-2.69,.45-5.83,.9-8.52l20.19-99.59c.9-5.38,1.35-10.77,1.35-16.15,0-27.37-17.95-36.34-42.62-36.34-44.86,0-67.29,29.61-88.38,64.6l16.15-82.1c5.83,.9,11.22,1.79,17.05,1.79,47.11,0,81.2-30.95,81.2-79.41,0-37.68-28.71-57.42-64.6-57.42-39.48,0-71.33,24.67-83.89,61.91-17.5-11.66-41.72-20.64-62.81-20.64-39.93,0-69.09,30.95-69.09,69.54,0,16.99,4.11,35.21,9.4,45.22l-52.02,103.72-22.88-148.04c-.9-8.08-1.79-16.6-1.79-25.12,0-17.5,8.97-26.92,35.44-28.26,5.38-.45,6.73-3.14,6.73-6.73s-2.69-5.83-5.83-5.83h-143.56c-5.83,0-8.08,2.24-8.08,6.28,0,3.14,1.35,5.83,6.28,6.28,11.66,1.35,17.05,5.38,21.53,13.01,6.28,11.22,10.32,33.65,11.66,42.17l5.38,29.16-62.36,118.44-28.26-149.39c-1.35-8.08-3.14-16.6-2.69-25.57,.45-17.5,7.18-26.47,24.23-27.81,5.38-.45,7.18-4.04,7.18-6.73,0-4.04-2.69-5.83-6.28-5.83h-133.24c-5.83,0-8.52,2.24-8.52,6.28,0,3.14,1.35,5.83,6.73,6.28,11.66,1.35,18.39,4.49,23.33,13.01,5.83,10.32,9.87,33.2,11.66,42.17l48.9,238.22c1.35,7.18,5.83,11.66,12.11,11.66,6.73,0,12.56-4.04,16.15-10.77l96.45-179,32.3,178.1c1.35,7.18,6.28,11.66,12.56,11.66,6.73,0,12.11-4.04,15.7-10.77l127.41-239.56c3.51-6.4,7.03-12.51,10.93-18.39,18.71,3.85,35.89,15.09,52.77,22.43l-46.21,230.59v2.24c0,4.49,2.69,6.73,7.18,6.73h49.35c5.83,0,8.97-3.14,9.87-8.08l9.87-48.9c3.14-16.6,8.07-32.75,13.91-48.45,7.63-19.74,31.85-72.23,57.87-72.23,7.63,0,8.97,6.28,8.97,12.56,0,5.38-.9,10.32-1.79,15.7-7.63,37.23-15.7,74.47-22.43,111.71-.45,4.93-1.35,9.42-1.35,13.91,0,20.64,12.11,30.06,31.4,30.06,27.37,0,52.94-12.11,73.57-29.61,4.04-3.59,8.52-7.18,12.11-11.66,1.35-1.35,2.24-3.59,2.24-5.83,0-2.69-1.35-4.49-4.49-4.49ZM1374.54,14.97c18.84,0,28.71,13.01,28.71,30.95,0,28.71-17.05,46.66-45.76,46.66-8.97,0-17.95-1.79-26.02-5.38,4.93-25.12,8.97-72.23,43.07-72.23Zm-205.02,100.04l-13.47,26.86c-.79-3.83-1.34-7.57-1.34-10.71,0-16.3,8.88-29.14,22.62-34.69-1.61,5.35-4.19,11.29-7.81,18.54Zm388.05,247.64c-55.18,0-93.76-28.26-93.76-85.69,0-74.92,65.05-125.61,136.83-125.61,52.04,0,93.31,30.51,93.31,85.24,0,74.92-65.05,126.06-136.38,126.06Zm33.2-199.19c-43.97,0-56.08,92.42-56.08,123.82,0,20.64,4.49,63.25,32.3,63.25,43.96,0,56.08-91.97,56.08-123.37,0-21.09-4.04-63.7-32.3-63.7Zm-985.16,460.31c0,3.59-2.69,6.28-7.63,6.28-13.91,.9-22.43,5.38-28.26,12.56-8.97,9.87-13.46,24.23-16.15,42.62-2.24,16.15-3.14,37.68-3.14,48.9-33.2,16.6-79.41,28.71-131.45,28.71-84.79,0-149.84-47.55-149.84-134.14,0-5.83,.45-11.22,.9-17.5,7.18-84.34,69.54-178.55,206.36-178.55,22.88,0,47.55,5.83,68.64,15.7,3.59,1.79,8.08,4.04,12.11,4.04,3.59,0,4.93-1.79,6.28-4.49,1.79-4.49,4.49-6.73,8.52-6.73,5.38,0,7.63,4.04,7.63,8.97,0,23.78-10.32,66.4-17.05,89.72-2.24,7.63-5.38,13.01-11.66,13.01s-8.07-4.93-8.07-11.22c-1.35-27.37-5.83-45.76-15.7-62.36-9.42-16.15-26.02-30.51-55.18-30.51-46.66,0-92.42,46.21-102.28,144.46-1.79,15.7-2.69,30.06-2.69,43.07,0,43.07,8.52,102.73,64.15,102.73,28.71,0,48.45-20.19,52.94-58.32,.45-4.93,.9-8.97,.9-12.56,0-14.36-3.59-21.09-9.42-26.92s-13.91-9.87-26.92-11.22c-3.14-.45-5.38-2.69-5.38-6.28s3.14-6.28,7.18-6.28h148.94c4.04,0,6.28,2.69,6.28,5.83v.45Zm165.54,9.87c-23.78,24.67-65.5,33.65-98.7,33.2-.9,7.18-1.79,14.36-1.79,21.53,0,27.37,9.42,49.8,39.93,49.8,26.47,0,41.72-15.7,55.63-35.44,1.79-2.24,3.59-4.04,6.28-4.04,3.59,0,5.83,3.14,5.83,6.28,0,1.79-.45,3.59-1.35,5.38-18.84,32.3-48,48-85.24,48-52.04,0-90.17-23.33-90.17-78.96,0-74.92,58.77-131,133.24-131,27.37,0,54.73,10.77,54.73,42.17,0,16.15-7.18,31.4-18.39,43.07Zm-48-74.02c-28.26,0-43.96,69.98-47.55,91.07,4.93,1.35,9.87,2.24,15.25,2.24,32.75,0,41.27-34.99,44.86-61.46,.45-3.59,.9-7.18,.9-10.77,0-8.97-2.24-21.09-13.46-21.09Zm216.36,12.56l-45.76,.45-21.98,111.26c-1.79,8.08-3.59,16.6-3.59,25.12,0,11.22,4.04,19.74,16.6,19.74,26.02,0,43.07-27.37,48.45-27.37,2.69,0,4.04,2.24,4.04,4.49s-.9,4.04-2.24,5.83c-3.59,5.83-9.42,11.22-14.8,15.7-23.78,19.74-54.73,30.95-86.13,30.95-22.88,0-33.2-14.8-33.2-36.79,0-10.77,2.24-21.53,4.49-32.3,8.52-36.79,17.5-79.85,24.67-117.09h-26.47c-3.14,0-5.83-2.24-5.83-5.38,0-3.59,1.79-5.38,4.93-6.28,15.7-4.93,29.61-10.77,43.52-19.74,16.6-11.66,30.95-25.12,44.86-40.38,2.69-3.14,6.28-6.28,10.77-6.28,4.93,0,6.73,3.14,6.73,7.63,0,1.79-.45,3.59-.45,5.38-3.59,15.7-7.63,31.4-10.77,47.55h48.9c3.14,0,5.38,1.79,5.38,4.93,0,6.28-5.83,12.56-12.11,12.56Zm154.32,34.54c-1.35,2.24-3.14,4.93-6.73,4.93-4.04,0-5.83-3.14-6.28-6.28-.45-5.83-.45-11.66-1.35-17.94-3.14-19.29-14.36-27.81-34.99-27.81-18.84,0-39.03,7.63-39.48,28.26,0,39.93,92.86,29.61,92.86,97.8,0,18.84-8.52,36.79-22.88,49.8-21.53,18.84-47.1,23.33-74.92,23.33-11.22,0-60.56-4.93-60.56-18.84,0-8.97,6.28-39.03,9.87-47.55,1.35-3.14,3.59-5.83,7.18-5.83,4.04,0,5.83,2.69,6.28,6.28,.45,3.59,.45,7.18,.9,10.77,2.69,24.67,18.84,41.72,45.76,41.72,20.19,0,39.48-9.87,39.48-31.4,0-42.62-87.93-32.3-87.48-97.35,0-48,43.07-69.54,87.93-69.54,10.32,0,53.83,2.69,53.83,16.6,0,7.18-5.83,36.79-9.42,43.07Zm456.69-152.53c-15.7,1.35-25.12,6.28-33.2,13.01-16.6,13.01-27.37,25.12-40.38,42.17l-68.19,89.72-17.05,86.13c-2.24,11.66-4.04,21.98-4.04,30.51,0,6.73,.9,11.66,4.04,15.25,5.38,6.73,17.5,8.07,29.61,8.97,3.59,.45,5.83,3.14,5.83,6.28,0,4.04-2.69,6.28-7.18,6.28h-157.91c-3.59,0-6.28-2.24-6.28-5.83,0-4.04,2.69-6.28,7.63-6.73,17.05-.45,27.82-2.24,36.79-12.56,7.63-8.52,11.22-21.98,14.8-41.72l16.6-83.89-40.82-93.31c-9.42-21.53-13.91-31.4-21.53-39.48-8.07-8.97-17.05-11.66-28.26-11.66-22.88,0-41.72,18.39-42.17,43.96-.9,18.39,6.73,36.79,27.81,36.79,9.42,0,17.5-5.38,27.37-5.38,13.01,0,21.53,8.08,21.53,20.64,0,17.5-15.7,25.12-31.4,25.12-36.79,0-62.36-31.4-62.36-66.84,0-43.96,28.71-69.98,72.23-69.98h142.21c3.14,0,5.83,2.24,5.83,6.28,0,3.14-3.59,6.28-7.63,6.28-10.32,.45-21.53,1.35-26.92,7.18-3.14,3.14-4.49,7.63-4.49,11.66,0,8.08,4.93,19.29,8.52,28.71l30.06,78.51,52.04-71.78c12.56-17.5,20.64-30.06,20.64-39.93,0-8.97-7.63-13.91-16.15-14.36-6.28,0-7.63-3.14-7.63-6.28,0-4.04,3.14-6.28,7.18-6.28h94.66c2.69,0,6.28,1.35,6.28,5.83,0,3.59-3.59,6.28-8.08,6.73Zm-13.37,304.16c-55.18,0-93.76-28.26-93.76-85.69,0-74.92,65.05-125.61,136.83-125.61,52.04,0,93.31,30.51,93.31,85.24,0,74.92-65.05,126.06-136.38,126.06Zm33.2-199.19c-43.97,0-56.08,92.42-56.08,123.82,0,20.64,4.49,63.25,32.3,63.25,43.96,0,56.08-91.97,56.08-123.37,0-21.09-4.04-63.7-32.3-63.7Zm346.96,159.26c-19.74,21.98-52.49,39.48-82.1,39.48-18.84,0-28.26-9.42-28.26-28.71,0-13.91,4.04-28.71,6.28-42.62-17.94,35.89-45.31,71.33-89.27,71.33-24.67,0-40.38-10.32-40.38-36.34,0-5.38,.9-11.22,1.79-16.6l17.5-87.48c.9-4.49,1.79-9.42,1.79-13.91,0-17.94-9.87-18.39-24.22-18.39-3.14,0-6.28,0-6.28-4.04,0-2.69,1.79-3.59,3.59-4.93,13.01-5.83,79.4-21.09,93.31-21.09,4.49,0,7.18,2.24,7.18,6.73,0,1.35,0,2.24-.45,3.14l-27.81,139.52c-.9,4.49-1.8,9.42-1.8,14.36,0,6.28,1.8,12.11,8.97,12.11,33.2,0,70.43-101.39,70.43-129.2,0-17.05-9.42-16.6-22.43-16.6-3.14,0-6.28-.45-6.28-4.04,0-2.69,1.79-4.04,3.59-4.93,13.01-5.83,76.71-21.09,90.62-21.09,4.49,0,7.18,2.24,7.18,6.73,0,1.35,0,2.24-.45,3.14l-26.92,136.38c-.45,2.69-.9,5.38-.9,8.52,0,8.08,3.59,13.91,12.11,13.91,14.36,0,26.92-15.7,30.95-15.7,3.14,0,4.93,2.24,4.93,4.49s-1.35,4.49-2.69,5.83Z"/></svg>